{"title":"Zayn - Pillowtalk (2016 Electronic)","uid":13479068,"size":94640808,"categoryP":"video","categoryS":"music_videos","magnet":"?xt=urn:btih:e8ae5eb4e6e555c0384dd50ee09aec651d4d6fc3&amp;dn=Zayn+-+Pillowtalk+%282016+Electronic%29&amp;tr=udp%3A%2F%2Ftracker.leechers-paradise.org%3A6969&amp;tr=udp%3A%2F%2Fzer0day.ch%3A1337&amp;tr=udp%3A%2F%2Fopen.demonii.com%3A1337&amp;tr=udp%3A%2F%2Ftracker.coppersurfer.tk%3A6969&amp;tr=udp%3A%2F%2Fexodus.desync.com%3A6969","seeders":5,"leechers":0,"uploader":"MeRaDil","files":1,"time":1455041298,"description":"ZAYN - PILLOWTALK\r\n\r\n \nhttp://gifyu.com/images/zayn01.png\r\n \nhttp://gifyu.com/images/zayn.png\r\n\r\n\r\nGeneral\r\nZayn - Pillowtalk\r\nFormat                                   : MPEG-4\r\nFormat profile                           : Base Media\r\nCodec ID                                 : isom\r\nFile size                                : 90.3 MiB\r\nDuration                                 : 3mn 26s\r\nOverall bit rate                         : 3 663 Kbps\r\nMusicVid name                            : Pillow Talk\r\nPerformer                                : Zayn\r\nGenre                                    : Electronic/RnB\r\nContentType                              : Music Video\r\nRecorded date                            : 2016\r\nWriting application                      : MeRaDil\r\nCover                                    : Yes\r\nReleasetime                              : UK - january 29 - 2016\r\n\r\nVideo\r\nID                                       : 1\r\nFormat                                   : AVC\r\nFormat/Info                              : Advanced Video Codec\r\nFormat profile                           :   \r\nFormat settings, CABAC                   : Yes\r\nFormat settings, ReFrames                : 2 frames\r\nCodec ID                                 : avc1\r\nCodec ID/Info                            : Advanced Video Coding\r\nDuration                                 : 3mn 26s\r\nBit rate                                 : 3 389 Kbps\r\nWidth                                    : 1 920 pixels\r\nHeight                                   : 1 080 pixels\r\nDisplay aspect ratio                     : 16:9\r\nFrame rate mode                          : Variable\r\nFrame rate                               : 23.976 fps\r\nMinimum frame rate                       : 23.974 fps\r\nMaximum frame rate                       : 23.981 fps\r\nColor space                              : YUV\r\nChroma subsampling                       : 4:2:0\r\nBit depth                                : 8 bits\r\nScan type                                : Progressive\r\nBits/(Pixel*Frame)                       : 0.068\r\nStream size                              : 83.5 MiB (92%)\r\n\r\nAudio\r\nID                                       : 2\r\nFormat                                   : AAC\r\nFormat/Info                              : Advanced Audio Codec\r\nFormat profile                           : LC\r\nCodec ID                                 : 40\r\nDuration                                 : 3mn 26s\r\nBit rate mode                            : Constant\r\nBit rate                                 : 256 Kbps\r\nChannel(s)                               : 2 channels\r\nChannel positions                        : Front: L R\r\nSampling rate                            : 44.1 KHz\r\nCompression mode                         : Lossy\r\nStream size                              : 6.31 MiB (7%)","torrent":{"xt":"urn:btih:e8ae5eb4e6e555c0384dd50ee09aec651d4d6fc3","amp;dn":"Zayn+-+Pillowtalk+%282016+Electronic%29","amp;tr":["udp%3A%2F%2Ftracker.leechers-paradise.org%3A6969","udp%3A%2F%2Fzer0day.ch%3A1337","udp%3A%2F%2Fopen.demonii.com%3A1337","udp%3A%2F%2Ftracker.coppersurfer.tk%3A6969","udp%3A%2F%2Fexodus.desync.com%3A6969"],"infoHash":"e8ae5eb4e6e555c0384dd50ee09aec651d4d6fc3","infoHashBuffer":{"type":"Buffer","data":[232,174,94,180,230,229,85,192,56,77,213,14,224,154,236,101,29,77,111,195]},"announce":[],"urlList":[]}}